# AST/ASF file generated using VICON BodyLanguage
# -----------------------------------------------
:version 1.10
:name VICON
:units
  mass 1.0
  length 0.45
  angle deg
:documentation
   .ast/.asf automatically generated from VICON data using
   VICON BodyBuilder and BodyLanguage model FoxedUp or BRILLIANT.MOD
:root
   order TX TY TZ RX RY RZ
   axis XYZ
   position 0 0 0  
   orientation 0 0 0 
:bonedata
  begin
     id 1 
     name lhipjoint
     direction 0.78388 -0.462562 0.414208 
     length 3.01181 
     axis 0 0 0  XYZ
  end
  begin
     id 2 
     name lfemur
     direction 0.34202 -0.939693 0  
     length 6.04673  
     axis 0 0 20  XYZ
    dof rx ry rz
    limits (-160.0 20.0)
           (-70.0 70.0)
           (-60.0 70.0)
  end
  begin
     id 3 
     name ltibia
     direction 0.34202 -0.939693 0   
     length 7.211   
     axis 0 0 20   XYZ
    dof rx
    limits (-10.0 170.0)
  end
  begin
     id 4 
     name lfoot
     direction 0.121887 -0.334882 0.934344   
     length 2.13567   
     axis -90 7.62852e-016 20   XYZ
    dof rx rz
    limits (-45.0 90.0)
           (-70.0 20.0)
  end
  begin
     id 5 
     name ltoes
     direction 1.53555e-011 -4.2179e-011 1   
     length 1.05957   
     axis -90 7.62852e-016 20   XYZ
    dof rx
    limits (-90.0 20.0)
  end
  begin
     id 6 
     name rhipjoint
     direction -0.769387 -0.475875 0.426129   
     length 2.92756  
     axis 0 0 0  XYZ 
  end
  begin
     id 7 
     name rfemur
     direction -0.34202 -0.939693 0   
     length 6.35468   
     axis 0 0 -20   XYZ
    dof rx ry rz
    limits (-160.0 20.0)
           (-70.0 70.0)
           (-70.0 60.0)
  end
  begin
     id 8 
     name rtibia
     direction -0.34202 -0.939693 0   
     length 7.37886   
     axis 0 0 -20   XYZ
    dof rx
    limits (-10.0 170.0)
 end
 begin
     id 9 
     name rfoot
     direction -0.101763 -0.279592 0.954711   
     length 2.21478  
     axis -90 -7.62852e-016 -20   XYZ
    dof rx rz
    limits (-45.0 90.0)
           (-20.0 70.0)
  end
  begin
     id 10 
     name rtoes
     direction -1.53494e-011 -4.21851e-011 1   
     length 1.10506   
     axis -90 -7.62852e-016 -20   XYZ
    dof rx
    limits (-90.0 20.0)
  end
  begin
     id 11 
     name lowerback
     direction 0.00747405 0.999267 0.0375481   
     length 2.13259   
     axis 0 0 0   XYZ
    dof rx ry rz
    limits (-20.0 45.0)
           (-30.0 30.0)
           (-30.0 30.0)
  end
  begin
     id 12 
     name upperback
     direction 0.00661626 0.996177 0.0871029   
     length 2.10528   
     axis 0 0 0   XYZ
    dof rx ry rz
    limits (-20.0 45.0)
           (-30.0 30.0)
           (-30.0 30.0)
  end
  begin
     id 13 
     name thorax
     direction 0.00320659 0.997679 0.0680167   
     length 2.11338   
     axis 0 0 0   XYZ
    dof rx ry rz
    limits (-20.0 45.0)
           (-30.0 30.0)
           (-30.0 30.0)
  end
  begin
     id 14 
     name lowerneck
     direction 0.0374841 0.973033 0.227602   
     length 1.42765   
     axis 0 0 0   XYZ
    dof rx ry rz
    limits (-20.0 45.0)
           (-30.0 30.0)
           (-30.0 30.0)
  end
  begin
     id 15 
     name upperneck
     direction 0.00481585 0.989155 -0.146795   
     length 1.47593   
     axis 0 0 0   XYZ
    dof rx ry rz
    limits (-20.0 45.0)
           (-30.0 30.0)
           (-30.0 30.0)
  end
  begin
     id 16
     name head
     direction -0.00292522 0.997206 -0.0746423  
     length 1.48116  
     axis 0 0 0   XYZ
    dof rx ry rz
    limits (-20.0 45.0)
           (-30.0 30.0)
           (-30.0 30.0)
  end
  begin
     id 17 
     name lclavicle
     direction 0.951444 0.305606 0.0368784  
     length 3.01855  
     axis 0 0 0   XYZ
    dof ry rz
    limits (-20.0 10.0)
           (0.0 20.0)
  end
  begin
     id 18 
     name lhumerus
     direction 1 -4.48977e-011 2.61664e-027   
     length 5.52731   
     axis 180 -30 -90   XYZ
    dof rx ry rz
    limits (-60.0 90.0)
           (-90.0 90.0)
           (-90.0 90.0)
  end
  begin
     id 19
     name lradius
     direction 1 -4.48944e-011 8.22157e-027   
     length 3.11059   
     axis 180 -30 -90   XYZ
    dof rx
    limits (-10.0 170.0)
  end
  begin
     id 20
     name lwrist
     direction 1 -4.48976e-011 1.5779e-026   
     length 1.5553   
     axis -1.15221e-014 90 90   XYZ
    dof ry
    limits (-180.0 0.0)
 end
  begin
     id 21 
     name lhand
     direction 1 -4.49025e-011 3.1558e-026   
     length 0.419626   
     axis -2.01367e-014 90 90   XYZ
    dof rx rz
    limits (-90.0 90.0)
           (-45.0 45.0)
  end
  begin
     id 22 
     name lfingers
     direction 1 -4.4904e-011 6.31161e-026   
     length 0.338313   
     axis -4.02734e-014 90 90   XYZ
    dof rx
    limits (0.0 90.0)
  end
  begin
     id 23
     name lthumb
     direction 0.707107 -6.35004e-011 0.707107   
     length 0.485752   
     axis -90 45 2.85299e-015   XYZ
    dof rx rz
    limits (-45.0 45.0)
           (-45.0 45.0)
  end
  begin
     id 24 
     name rclavicle
     direction -0.968876 0.223791 0.105816   
     length 3.04177  
     axis 0 0 0   XYZ 
    dof ry rz
    limits (-10.0 20.0)
           (-20.0 0.0)
  end
  begin
     id 25 
     name rhumerus
     direction -1 -4.48962e-011 -1.01384e-027  
     length 5.25396   
     axis 180 30 90   XYZ
    dof rx ry rz
    limits (-90.0 60.0)
           (-90.0 90.0)
           (-90.0 90.0)
  end
  begin
     id 26 
     name rradius
     direction -1 -4.48955e-011 8.88542e-027   
     length 3.10567   
     axis 180 30 90   XYZ
    dof rx
    limits (-10.0 170.0)
  end
  begin
     id 27 
     name rwrist
     direction -1 -4.48994e-011 1.5779e-026   
     length 1.55283   
     axis -1.15221e-014 -90 -90   XYZ
    dof ry
    limits (-180.0 0.0)
  end
  begin
     id 28
     name rhand
     direction -1 -4.48891e-011 3.1558e-026   
     length 0.498676   
     axis -2.01367e-014 -90 -90   XYZ
    dof rx rz
    limits (-90.0 90.0)
           (-45.0 45.0)
  end
  begin
     id 29
     name rfingers
     direction -1 -4.48972e-011 6.31161e-026   
     length 0.402045   
     axis -4.02734e-014 -90 -90   XYZ
    dof rx
    limits (0.0 90.0)
  end
  begin
     id 30
     name rthumb
     direction -0.707107 -6.34849e-011 0.707107   
     length 0.577259   
     axis -90 -45 -2.85299e-015   XYZ
    dof rx rz
    limits (-45.0 45.0)
           (-45.0 45.0)
  end
:hierarchy
  begin
    root lhipjoint rhipjoint lowerback
    lhipjoint lfemur
    lfemur ltibia
    ltibia lfoot
    lfoot ltoes
    rhipjoint rfemur
    rfemur rtibia
    rtibia rfoot
    rfoot rtoes
    lowerback upperback
    upperback thorax
    thorax lowerneck lclavicle rclavicle
    lowerneck upperneck
    upperneck head
    lclavicle lhumerus
    lhumerus lradius
    lradius lwrist
    lwrist lhand lthumb
    lhand lfingers
    rclavicle rhumerus
    rhumerus rradius
    rradius rwrist
    rwrist rhand rthumb
    rhand rfingers
  end

#!OML:ASF H:\Pregnant\Project 1\Capture day 1\Session 1\femalepreg.ASF
:FULLY-SPECIFIED
:DEGREES
69
root 9.60371 15.81 -0.759053 24.0207 -1.38858 -1.09322
lowerback -15.4097 1.42238 7.75641
upperback -2.78127 0.599326 0.202217
thorax 5.74618 0.42961 -4.05817
lowerneck -12.3929 1.71993 4.08265
upperneck 30.3326 1.94292 -1.70248
head 12.074 1.11783 -1.08
rclavicle 6.55989e-015 -1.59028e-014
rhumerus -32.1423 -9.28066 -74.0948
rradius 32.2541
rwrist -5.19784
rhand -16.8528 -17.3939
rfingers 7.12502
rthumb 9.3774 -47.1654
lclavicle 6.55989e-015 -1.59028e-014
lhumerus -37.2157 -12.4301 85.6335
lradius 27.9816
lwrist 38.6488
lhand -23.2002 -4.32273
lfingers 7.12502
lthumb 3.24975 25.6322
rfemur -29.4236 16.7613 22.7199
rtibia 33.2082
rfoot -20.3997 -11.669
rtoes -9.46419
lfemur -56.2729 -10.8757 -15.8598
ltibia 31.4323
lfoot -3.5597 3.14569
ltoes -22.2674
70
root 9.61047 15.8111 -0.695751 24.2297 -1.53501 -1.17103
lowerback -15.4343 1.45174 7.76977
upperback -2.7674 0.634629 0.175247
thorax 5.77947 0.448921 -4.08726
lowerneck -12.368 1.76638 4.13568
upperneck 30.2979 1.99367 -1.69373
head 12.0576 1.14704 -1.07885
rclavicle -3.77691e-015 -2.38542e-014
rhumerus -31.911 -9.04708 -74.3651
rradius 32.4135
rwrist -5.24454
rhand -16.7887 -17.276
rfingers 7.12502
rthumb 9.43925 -47.0446
lclavicle -3.77691e-015 -2.38542e-014
lhumerus -37.2419 -12.2041 85.403
lradius 27.647
lwrist 38.6909
lhand -23.485 -4.23645
lfingers 7.12502
lthumb 2.97469 25.7225
rfemur -29.2202 16.8439 22.7286
rtibia 32.8441
rfoot -20.4088 -11.5941
rtoes -9.49699
lfemur -56.3298 -10.9369 -15.542
ltibia 30.1176
lfoot -3.03557 3.26873
ltoes -22.1097
71
root 9.61738 15.8122 -0.631063 24.4361 -1.67981 -1.26298
lowerback -15.4579 1.4782 7.77501
upperback -2.75775 0.667349 0.154088
thorax 5.80719 0.466449 -4.10606
lowerneck -12.3343 1.81301 4.18566
upperneck 30.2675 2.04402 -1.67899
head 12.0411 1.17653 -1.07507
rclavicle -2.98177e-016 -8.34896e-015
rhumerus -31.6825 -8.80959 -74.6299
rradius 32.5471
rwrist -5.23299
rhand -16.7195 -17.1823
rfingers 7.12502
rthumb 9.50602 -46.9479
lclavicle -2.98177e-016 -8.34896e-015
lhumerus -37.2739 -11.9561 85.1732
lradius 27.331
lwrist 38.7664
lhand -23.7839 -4.08831
lfingers 7.12502
lthumb 2.68608 25.8745
rfemur -28.9882 16.9289 22.7527
rtibia 32.4473
rfoot -20.4172 -11.512
rtoes -9.50707
lfemur -56.3891 -11.0212 -15.1665
ltibia 28.8763
lfoot -2.48661 3.3233
ltoes -21.9792
72
root 9.62427 15.8129 -0.565278 24.6451 -1.81836 -1.36497
lowerback -15.4866 1.49807 7.76558
upperback -2.75065 0.692883 0.140921
thorax 5.8339 0.480006 -4.10942
lowerneck -12.2972 1.85879 4.22779
upperneck 30.2401 2.09402 -1.66012
head 12.0249 1.20548 -1.0685
rclavicle 7.35503e-015 -9.54166e-015
rhumerus -31.4523 -8.56645 -74.8875
rradius 32.6598
rwrist -5.17193
rhand -16.6507 -17.0875
rfingers 7.12502
rthumb 9.57235 -46.8501
lclavicle 7.35503e-015 -9.54166e-015
lhumerus -37.3018 -11.677 84.9426
lradius 27.0297
lwrist 38.8605
lhand -24.0636 -3.88611
lfingers 7.12502
lthumb 2.41591 26.08
rfemur -28.7367 17.0107 22.7889
rtibia 32.0222
rfoot -20.4301 -11.4235
rtoes -9.49421
lfemur -56.4593 -11.125 -14.7428
ltibia 27.7216
lfoot -1.95168 3.32012
ltoes -21.8736
73
root 9.63108 15.813 -0.498136 24.8531 -1.9533 -1.47519
lowerback -15.5215 1.51273 7.73992
upperback -2.74209 0.713228 0.133349
thorax 5.86468 0.490857 -4.09858
lowerneck -12.264 1.90578 4.26548
upperneck 30.217 2.14496 -1.63544
head 12.0112 1.23505 -1.05887
rclavicle 1.68967e-015 -2.0276e-014
rhumerus -31.217 -8.33205 -75.1367
rradius 32.7509
rwrist -5.05891
rhand -16.5775 -16.998
rfingers 7.12502
rthumb 9.64302 -46.7573
lclavicle 1.68967e-015 -2.0276e-014
lhumerus -37.3301 -11.3756 84.7105
lradius 26.7608
lwrist 38.9668
lhand -24.3022 -3.70876
lfingers 7.12502
lthumb 2.18546 26.2598
rfemur -28.4653 17.0872 22.8363
rtibia 31.5764
rfoot -20.4412 -11.3267
rtoes -9.47834
lfemur -56.5362 -11.2416 -14.283
ltibia 26.6646
lfoot -1.46193 3.27723
ltoes -21.7788
74
root 9.63778 15.8126 -0.429581 25.0589 -2.08288 -1.59397
lowerback -15.5607 1.52008 7.6969
upperback -2.73282 0.725822 0.134311
thorax 5.89732 0.497584 -4.07031
lowerneck -12.2344 1.95282 4.29423
upperneck 30.2006 2.19736 -1.60838
head 12.0008 1.26456 -1.04664
rclavicle 3.08116e-015 -1.35174e-014
rhumerus -30.9831 -8.10028 -75.3723
rradius 32.8269
rwrist -4.89752
rhand -16.4921 -16.9014
rfingers 7.12502
rthumb 9.72544 -46.6568
lclavicle 3.08116e-015 -1.35174e-014
lhumerus -37.3601 -11.0567 84.485
lradius 26.522
lwrist 39.0853
lhand -24.5125 -3.48696
lfingers 7.12502
lthumb 1.98241 26.4836
rfemur -28.1746 17.1555 22.8971
rtibia 31.1147
rfoot -20.4479 -11.2217
rtoes -9.48274
lfemur -56.6182 -11.3667 -13.797
ltibia 25.7136
lfoot -1.0408 3.22032
ltoes -21.6874
